<svg id="svg" version="1.1" xmlns="http://www.w3.org/2000/svg" xmlns:xlink="http://www.w3.org/1999/xlink" width="400" height="229.7709923664122" viewBox="0, 0, 400,229.7709923664122"><g id="svgg"><path id="path0" d="M0.000 114.885 L 0.000 229.771 200.000 229.771 L 400.000 229.771 400.000 114.885 L 400.000 0.000 200.000 0.000 L 0.000 0.000 0.000 114.885 M100.456 5.630 C 100.956 6.312,101.386 6.870,101.410 6.870 C 101.434 6.870,101.863 6.312,102.364 5.630 C 103.220 4.463,103.320 4.389,104.034 4.389 C 104.915 4.389,104.949 4.288,103.400 6.334 C 102.061 8.105,102.062 7.777,103.387 9.520 C 103.991 10.313,104.597 11.115,104.734 11.302 C 104.963 11.613,104.915 11.641,104.146 11.641 C 103.327 11.641,103.288 11.612,102.354 10.303 L 101.399 8.965 100.461 10.295 C 99.551 11.585,99.498 11.625,98.701 11.633 C 97.739 11.643,97.702 11.754,99.380 9.593 C 100.143 8.610,100.546 7.931,100.456 7.780 C 100.377 7.647,99.763 6.830,99.091 5.964 L 97.869 4.389 98.707 4.389 C 99.517 4.389,99.574 4.430,100.456 5.630 M123.730 12.433 C 126.093 14.045,127.283 15.953,126.384 16.689 C 122.759 19.655,121.571 19.954,121.562 17.904 C 121.560 17.556,121.496 17.185,121.419 17.080 C 121.327 16.955,114.887 16.889,102.767 16.889 C 81.832 16.889,82.269 16.923,82.986 15.350 C 83.364 14.521,83.725 14.506,103.006 14.505 L 121.374 14.504 121.374 13.688 C 121.374 12.109,122.430 11.547,123.730 12.433 M21.095 16.433 C 21.174 16.684,21.115 16.944,20.938 17.121 C 20.536 17.523,19.847 17.269,19.847 16.717 C 19.847 15.923,20.860 15.693,21.095 16.433 M29.301 16.433 C 29.471 16.970,28.993 17.448,28.456 17.278 C 28.066 17.154,27.892 16.447,28.181 16.158 C 28.469 15.869,29.177 16.043,29.301 16.433 M40.649 16.085 C 40.649 16.115,40.462 16.651,40.234 17.278 C 39.918 18.147,39.820 18.845,39.820 20.229 C 39.820 21.613,39.918 22.311,40.234 23.180 C 40.462 23.807,40.649 24.343,40.649 24.373 C 40.649 24.403,40.401 24.427,40.097 24.427 C 38.661 24.427,38.119 19.596,39.240 16.793 C 39.495 16.157,40.649 15.577,40.649 16.085 M72.578 16.937 C 73.638 19.233,72.951 24.427,71.586 24.427 L 71.014 24.427 71.432 23.521 C 71.793 22.741,71.851 22.282,71.851 20.229 C 71.851 18.176,71.793 17.717,71.432 16.937 L 71.014 16.031 71.586 16.031 C 72.083 16.031,72.214 16.150,72.578 16.937 M13.664 16.585 C 15.359 17.355,16.012 19.539,15.089 21.349 C 14.013 23.458,10.738 23.598,9.405 21.591 C 7.484 18.699,10.503 15.150,13.664 16.585 M52.042 16.634 C 53.522 17.859,53.322 21.976,51.742 22.793 C 49.838 23.777,48.354 22.150,48.501 19.238 C 48.626 16.754,50.511 15.367,52.042 16.634 M69.408 16.634 C 70.889 17.859,70.688 21.976,69.108 22.793 C 67.204 23.777,65.720 22.150,65.867 19.238 C 65.993 16.754,67.878 15.367,69.408 16.634 M11.047 17.653 C 9.735 18.366,9.760 20.983,11.086 21.669 C 12.152 22.221,13.338 21.920,13.930 20.949 C 15.193 18.879,13.130 16.520,11.047 17.653 M49.909 17.929 C 49.461 18.797,49.521 20.817,50.014 21.444 C 50.907 22.579,51.908 21.665,51.908 19.717 C 51.908 18.129,51.537 17.366,50.763 17.366 C 50.333 17.366,50.132 17.499,49.909 17.929 M67.276 17.929 C 66.827 18.797,66.887 20.817,67.380 21.444 C 68.273 22.579,69.275 21.665,69.275 19.717 C 69.275 18.129,68.903 17.366,68.130 17.366 C 67.700 17.366,67.498 17.499,67.276 17.929 M25.246 18.300 C 25.805 18.585,25.954 18.605,25.954 18.395 C 25.954 18.239,26.151 18.130,26.431 18.130 L 26.908 18.130 26.908 20.598 C 26.908 23.848,26.681 24.408,25.201 24.806 C 24.134 25.094,22.519 24.328,22.519 23.535 C 22.519 23.180,23.595 23.209,23.733 23.569 C 23.905 24.016,25.316 23.952,25.566 23.486 C 25.996 22.683,25.829 22.284,25.200 22.610 C 23.046 23.724,21.067 20.698,22.719 18.816 C 23.230 18.234,23.544 18.069,24.339 17.965 C 24.448 17.951,24.856 18.101,25.246 18.300 M34.103 18.360 C 34.696 18.651,34.924 19.467,34.924 21.307 L 34.924 22.901 34.351 22.901 L 33.779 22.901 33.779 21.361 C 33.779 19.531,33.592 19.084,32.829 19.084 C 31.968 19.084,31.679 19.670,31.679 21.417 L 31.679 22.901 31.107 22.901 L 30.534 22.901 30.534 20.515 L 30.534 18.130 31.107 18.130 C 31.422 18.130,31.679 18.212,31.679 18.311 C 31.679 18.411,31.958 18.372,32.300 18.225 C 32.927 17.954,33.339 17.985,34.103 18.360 M17.557 18.327 C 17.557 18.464,17.672 18.464,17.926 18.327 C 18.594 17.970,19.084 18.082,19.084 18.592 C 19.084 18.945,18.955 19.082,18.538 19.174 C 17.810 19.333,17.557 19.953,17.557 21.574 L 17.557 22.901 16.985 22.901 L 16.412 22.901 16.412 20.515 L 16.412 18.130 16.985 18.130 C 17.300 18.130,17.557 18.219,17.557 18.327 M20.992 20.515 L 20.992 22.901 20.420 22.901 L 19.847 22.901 19.847 20.515 L 19.847 18.130 20.420 18.130 L 20.992 18.130 20.992 20.515 M29.198 20.515 L 29.198 22.901 28.626 22.901 L 28.053 22.901 28.053 20.515 L 28.053 18.130 28.626 18.130 L 29.198 18.130 29.198 20.515 M42.893 18.800 C 43.429 19.628,43.543 19.628,44.107 18.799 C 44.469 18.268,44.687 18.132,45.181 18.131 C 45.964 18.129,45.960 18.162,45.038 19.320 C 44.097 20.502,44.093 20.403,45.145 21.770 L 46.015 22.901 45.334 22.901 C 44.756 22.901,44.574 22.787,44.130 22.145 C 43.488 21.217,43.533 21.217,42.879 22.141 C 42.428 22.779,42.235 22.901,41.675 22.901 L 41.008 22.901 41.878 21.770 C 42.927 20.408,42.919 20.585,41.985 19.348 C 41.064 18.129,41.064 18.129,41.842 18.132 C 42.339 18.134,42.547 18.266,42.893 18.800 M47.702 18.407 C 48.211 19.020,47.460 19.843,46.742 19.458 C 46.388 19.269,46.238 18.520,46.501 18.257 C 46.728 18.030,47.466 18.122,47.702 18.407 M59.805 19.132 C 59.998 19.683,60.284 20.434,60.440 20.802 L 60.723 21.469 61.346 19.847 C 61.931 18.323,62.005 18.222,62.570 18.165 L 63.172 18.105 62.773 19.119 C 60.749 24.270,60.477 24.809,59.909 24.809 L 59.364 24.809 59.746 23.807 L 60.128 22.805 59.181 20.468 L 58.234 18.130 58.843 18.130 C 59.406 18.130,59.479 18.206,59.805 19.132 M64.878 18.407 C 65.387 19.020,64.636 19.843,63.917 19.458 C 63.564 19.269,63.414 18.520,63.677 18.257 C 63.904 18.030,64.642 18.122,64.878 18.407 M23.598 19.433 C 23.171 19.905,23.190 21.041,23.631 21.440 C 24.497 22.224,25.763 21.598,25.763 20.387 C 25.763 19.218,24.354 18.598,23.598 19.433 M47.797 21.920 C 48.000 22.559,47.715 22.927,47.067 22.863 C 46.463 22.804,46.227 22.414,46.447 21.840 C 46.607 21.424,47.659 21.487,47.797 21.920 M55.257 21.803 C 54.556 24.044,54.555 24.046,54.088 24.046 C 53.554 24.046,53.558 24.067,53.843 22.646 C 54.055 21.592,54.076 21.565,54.696 21.565 C 55.117 21.565,55.306 21.645,55.257 21.803 M64.972 21.920 C 65.175 22.559,64.891 22.927,64.242 22.863 C 63.639 22.804,63.403 22.414,63.623 21.840 C 63.782 21.424,64.835 21.487,64.972 21.920 M34.469 25.439 C 35.204 25.820,36.798 27.564,36.944 28.148 C 37.116 28.833,35.461 28.817,105.227 28.818 C 252.585 28.822,369.332 29.191,369.794 29.655 C 369.876 29.737,369.949 30.763,369.958 31.934 C 369.966 33.106,370.071 43.640,370.191 55.344 C 370.311 67.047,370.504 104.060,370.621 137.595 C 370.750 174.867,370.903 198.799,371.014 199.161 C 371.563 200.960,370.649 201.352,365.879 201.364 C 303.148 201.521,35.269 201.513,33.694 201.354 C 32.233 201.207,31.538 201.207,31.264 201.354 C 30.739 201.635,30.027 201.422,29.669 200.876 C 29.353 200.394,29.214 59.961,29.513 43.102 L 29.640 35.919 29.040 35.608 C 24.702 33.365,25.097 26.917,29.676 25.227 C 30.515 24.917,33.738 25.060,34.469 25.439 M36.675 33.272 C 35.785 34.849,34.295 35.921,32.621 36.188 L 31.810 36.318 31.936 42.045 C 32.005 45.195,32.061 59.609,32.061 74.077 L 32.061 100.382 38.693 100.385 C 42.340 100.387,47.987 100.481,51.240 100.594 C 54.494 100.707,57.382 100.791,57.657 100.780 C 58.606 100.744,58.652 100.978,58.832 106.745 C 59.054 113.848,58.876 130.092,58.572 130.458 C 58.294 130.792,57.323 130.808,57.118 130.481 C 56.971 130.245,32.994 130.397,32.285 130.638 C 32.077 130.709,32.041 136.605,32.081 164.517 L 32.130 198.309 32.525 198.156 C 32.742 198.072,79.852 197.979,137.214 197.950 L 241.508 197.896 241.517 179.434 C 241.526 161.022,241.596 158.810,242.186 158.098 C 242.419 157.818,340.129 157.766,341.476 158.045 C 342.740 158.307,342.654 156.931,342.635 176.582 C 342.626 186.365,342.537 195.208,342.438 196.231 L 342.258 198.092 352.093 198.139 C 357.502 198.165,363.173 198.186,364.695 198.187 L 367.462 198.187 367.462 193.702 C 367.462 191.236,367.386 169.723,367.292 145.897 L 367.123 102.576 361.135 102.576 L 355.148 102.576 354.506 101.876 L 353.864 101.175 353.721 90.274 C 353.429 67.834,353.823 44.607,354.509 43.893 C 354.858 43.530,363.545 43.362,365.579 43.679 C 367.149 43.923,366.927 44.759,367.021 38.237 L 367.101 32.676 277.342 32.646 L 187.583 32.617 187.732 33.913 C 187.973 36.005,187.876 69.673,187.624 71.548 C 187.334 73.699,186.611 74.613,185.773 73.889 C 185.673 73.803,166.999 73.783,144.275 73.845 C 121.551 73.906,102.400 73.887,101.718 73.802 C 101.035 73.716,100.313 73.646,100.113 73.646 C 98.889 73.643,98.923 74.259,98.743 48.743 L 98.629 32.504 90.488 32.378 C 86.011 32.309,80.315 32.252,77.831 32.252 L 73.314 32.252 73.251 38.502 C 73.182 45.231,73.150 45.450,72.174 45.827 C 70.328 46.541,43.513 46.438,42.788 45.715 C 42.714 45.640,42.628 42.581,42.598 38.916 L 42.543 32.252 39.897 32.252 L 37.250 32.252 36.675 33.272 M44.233 38.120 L 44.286 43.989 56.997 44.015 C 63.989 44.030,70.126 44.097,70.637 44.165 L 71.565 44.288 71.562 38.699 C 71.561 35.626,71.508 32.917,71.445 32.681 L 71.330 32.252 57.754 32.252 L 44.179 32.252 44.233 38.120 M100.876 48.616 C 100.814 57.512,100.713 66.164,100.652 67.844 L 100.541 70.897 117.207 70.848 C 126.374 70.821,145.382 70.868,159.447 70.951 C 173.511 71.035,185.023 71.099,185.028 71.095 C 185.033 71.091,184.957 65.677,184.859 59.065 C 184.741 51.155,184.746 44.594,184.874 39.885 C 184.981 35.949,185.029 32.686,184.980 32.634 C 184.932 32.581,174.486 32.528,161.769 32.515 C 146.789 32.501,141.031 32.542,145.420 32.631 C 154.857 32.825,156.107 32.979,156.107 33.950 C 156.107 34.831,154.864 35.021,147.774 35.224 L 142.971 35.361 142.859 35.957 C 141.603 42.654,130.344 42.734,130.344 36.047 L 130.344 35.329 125.516 35.270 C 121.279 35.217,120.625 35.169,120.172 34.872 C 119.577 34.481,119.470 33.611,119.956 33.124 C 120.121 32.959,120.272 32.806,120.290 32.784 C 120.309 32.762,123.845 32.695,128.149 32.636 C 134.186 32.552,131.978 32.518,118.482 32.485 L 100.990 32.443 100.876 48.616 M16.281 36.538 C 16.731 36.988,16.857 44.344,16.749 63.905 L 16.652 81.531 17.630 81.403 C 18.167 81.332,18.962 81.227,19.395 81.168 C 21.540 80.878,21.515 82.640,19.335 85.357 C 16.062 89.436,15.652 89.330,12.582 83.623 C 11.989 82.520,12.615 81.489,13.878 81.489 L 14.422 81.489 14.344 60.791 C 14.265 39.685,14.317 37.046,14.821 36.542 C 15.182 36.181,15.923 36.179,16.281 36.538 M131.730 45.090 C 132.125 45.639,132.733 46.424,133.080 46.834 L 133.712 47.581 135.033 45.838 C 136.282 44.190,136.394 44.094,137.071 44.089 L 137.786 44.084 137.786 48.378 L 137.786 52.672 137.028 52.672 L 136.269 52.672 136.217 49.615 L 136.164 46.558 134.924 48.200 L 133.685 49.843 133.207 49.219 C 132.944 48.876,132.364 48.124,131.918 47.547 L 131.107 46.498 131.107 49.585 L 131.107 52.672 130.344 52.672 L 129.580 52.672 129.580 48.378 L 129.580 44.084 130.296 44.088 C 130.938 44.092,131.085 44.195,131.730 45.090 M143.173 47.758 L 143.225 51.431 144.132 51.489 C 144.995 51.545,145.038 51.575,145.038 52.110 L 145.038 52.672 142.462 52.672 L 139.885 52.672 139.885 52.110 C 139.885 51.575,139.929 51.545,140.792 51.489 L 141.698 51.431 141.751 48.521 L 141.804 45.611 140.832 45.611 C 138.598 45.611,140.113 44.163,142.410 44.103 L 143.122 44.084 143.173 47.758 M365.458 45.643 C 364.881 45.741,362.332 45.795,359.795 45.764 L 355.181 45.706 355.310 46.279 C 355.381 46.594,355.439 58.960,355.439 73.760 L 355.439 100.668 361.338 100.668 L 367.236 100.668 367.111 92.844 C 367.042 88.540,366.985 76.109,366.985 65.219 C 366.985 49.495,366.936 45.424,366.746 45.442 C 366.615 45.454,366.035 45.545,365.458 45.643 M4.667 57.149 C 5.256 58.247,5.802 59.185,5.880 59.233 C 5.958 59.282,6.532 58.383,7.156 57.237 L 8.291 55.153 9.203 55.153 C 10.325 55.153,10.420 54.782,8.397 58.270 L 6.679 61.231 6.679 62.772 L 6.679 64.313 5.916 64.313 L 5.153 64.313 5.153 62.734 L 5.153 61.155 3.608 58.488 C 2.759 57.021,1.983 55.670,1.884 55.487 C 1.724 55.189,1.808 55.153,2.650 55.153 L 3.596 55.153 4.667 57.149 M365.756 57.714 C 366.453 58.224,366.259 81.615,365.549 82.571 C 364.901 83.445,364.446 81.198,364.317 76.479 C 364.315 76.400,363.940 76.336,363.484 76.336 C 362.347 76.336,361.123 75.647,360.275 74.529 C 357.557 70.945,359.323 65.502,363.180 65.574 L 364.269 65.594 364.344 61.785 C 364.413 58.304,364.451 57.953,364.784 57.710 C 365.237 57.378,365.297 57.379,365.756 57.714 M337.334 67.032 C 337.832 67.688,338.435 68.463,338.672 68.754 L 339.105 69.284 340.402 67.573 C 341.622 65.963,341.741 65.861,342.414 65.851 L 343.130 65.840 343.130 70.038 L 343.130 74.237 342.371 74.237 L 341.613 74.237 341.560 71.263 L 341.508 68.289 340.363 69.822 C 339.008 71.636,339.240 71.640,337.801 69.774 L 336.641 68.270 336.641 71.253 L 336.641 74.237 335.878 74.237 L 335.115 74.237 335.115 70.038 L 335.115 65.840 335.771 65.840 C 336.353 65.840,336.531 65.976,337.334 67.032 M349.618 68.511 L 349.618 71.183 350.108 71.183 C 350.789 71.183,350.733 72.387,350.048 72.485 C 349.676 72.537,349.618 72.660,349.618 73.391 C 349.618 74.230,349.613 74.237,348.950 74.237 C 348.287 74.237,348.282 74.231,348.282 73.385 L 348.282 72.532 346.326 72.478 L 344.370 72.424 344.311 71.907 C 344.192 70.879,347.999 65.840,348.894 65.840 L 349.618 65.840 349.618 68.511 M347.079 69.525 L 345.972 71.088 347.053 71.146 C 348.394 71.217,348.309 71.334,348.243 69.501 L 348.187 67.962 347.079 69.525 M41.549 91.985 C 43.080 94.028,42.892 93.988,44.008 92.510 C 45.428 90.629,45.816 90.267,46.410 90.267 L 46.947 90.267 46.947 94.561 L 46.947 98.855 46.283 98.855 L 45.620 98.855 45.568 95.787 L 45.515 92.720 44.466 94.100 C 43.888 94.859,43.323 95.607,43.209 95.761 C 43.040 95.991,42.777 95.752,41.778 94.460 L 40.553 92.876 40.501 95.866 L 40.448 98.855 39.690 98.855 L 38.931 98.855 38.931 94.688 C 38.931 90.208,38.921 90.267,39.724 90.267 C 40.180 90.267,40.461 90.532,41.549 91.985 M53.035 90.544 C 55.104 91.614,54.711 94.079,52.119 96.288 L 50.787 97.424 52.683 97.478 L 54.580 97.532 54.580 98.194 L 54.580 98.855 51.622 98.855 L 48.664 98.855 48.664 98.270 C 48.664 97.778,48.981 97.379,50.678 95.742 C 52.940 93.558,53.306 92.810,52.502 92.006 C 51.640 91.144,50.191 91.695,50.191 92.886 C 50.191 93.266,50.095 93.321,49.427 93.321 C 48.536 93.321,48.412 92.859,48.983 91.657 C 49.586 90.385,51.638 89.821,53.035 90.544 M53.149 102.884 C 51.260 102.968,45.742 103.058,40.887 103.085 L 32.061 103.134 32.061 109.742 C 32.061 113.376,32.118 118.929,32.187 122.082 L 32.312 127.813 39.200 127.936 C 42.988 128.004,48.492 128.109,51.431 128.170 L 56.775 128.280 56.797 115.476 C 56.810 108.434,56.767 102.686,56.702 102.702 C 56.637 102.719,55.038 102.801,53.149 102.884 M52.944 103.544 C 53.593 104.193,53.126 104.781,50.573 106.528 C 49.785 107.067,49.116 107.525,49.086 107.547 C 49.055 107.568,49.174 107.945,49.349 108.384 C 51.368 113.429,42.930 119.014,39.599 114.839 L 39.069 114.175 37.077 115.383 C 34.247 117.099,32.968 117.158,32.968 115.573 C 32.968 114.614,33.701 114.083,41.989 109.053 C 51.175 103.477,52.308 102.907,52.944 103.544 M243.607 178.863 L 243.607 197.838 277.656 197.965 C 296.383 198.035,318.310 198.092,326.384 198.092 L 341.064 198.092 340.952 197.376 C 340.640 195.395,340.378 176.365,340.453 161.069 L 340.458 160.019 292.032 159.954 L 243.607 159.889 243.607 178.863 M290.232 172.269 C 291.786 173.006,292.939 174.850,292.939 176.598 L 292.939 177.072 297.013 177.133 C 301.442 177.200,301.790 177.281,301.679 178.227 C 301.558 179.270,301.584 179.268,288.199 179.282 L 275.921 179.294 275.556 178.843 C 274.539 177.588,275.290 177.128,278.435 177.080 C 282.292 177.022,282.633 176.963,282.638 176.358 C 282.666 172.988,286.920 170.698,290.232 172.269 M319.450 172.631 C 320.887 173.206,321.401 175.059,320.401 176.060 L 319.905 176.555 320.449 177.099 C 321.502 178.152,321.044 180.007,319.553 180.729 C 317.791 181.582,315.680 180.739,315.342 179.046 C 315.169 178.181,316.424 178.105,316.832 178.955 C 317.547 180.449,320.023 179.614,319.438 178.076 C 319.195 177.437,318.952 177.297,318.082 177.293 C 317.392 177.290,317.366 177.266,317.366 176.622 C 317.366 175.975,317.389 175.954,318.100 175.954 C 318.998 175.954,319.521 175.457,319.432 174.689 C 319.297 173.523,317.637 173.347,317.020 174.433 C 316.610 175.153,315.458 175.276,315.458 174.600 C 315.458 172.982,317.640 171.906,319.450 172.631 M308.572 174.243 L 309.904 175.966 311.202 174.254 C 312.423 172.643,312.542 172.541,313.216 172.530 L 313.931 172.519 313.931 176.718 L 313.931 180.916 313.173 180.916 L 312.414 180.916 312.362 177.954 L 312.309 174.992 311.164 176.515 C 309.778 178.359,310.052 178.356,308.681 176.539 L 307.538 175.024 307.486 177.970 L 307.433 180.916 306.675 180.916 L 305.916 180.916 305.916 176.718 L 305.916 172.519 306.578 172.519 C 307.186 172.519,307.348 172.659,308.572 174.243 " stroke="none" fill="#fbfbfb" fill-rule="evenodd"></path><path id="path1" d="M37.325 30.453 L 37.340 32.129 39.976 32.143 L 42.611 32.156 42.594 37.500 C 42.585 40.439,42.637 43.486,42.710 44.271 L 42.844 45.699 44.179 45.929 C 45.749 46.200,60.715 46.250,67.717 46.008 C 73.632 45.803,72.982 46.702,73.051 38.640 L 73.106 32.252 85.959 32.252 L 98.811 32.252 98.714 40.792 C 98.657 45.778,98.718 52.787,98.860 57.634 C 98.994 62.199,99.123 67.538,99.148 69.496 C 99.173 71.455,99.242 73.137,99.302 73.233 C 99.677 73.841,102.906 73.875,144.370 73.710 C 168.338 73.614,185.687 73.617,185.820 73.715 C 186.230 74.020,186.916 73.777,187.175 73.235 C 187.684 72.168,187.816 66.769,187.754 49.572 L 187.691 32.397 277.433 32.467 L 367.175 32.538 367.176 38.331 C 367.176 43.771,367.155 44.117,366.842 43.996 C 365.559 43.500,355.319 43.494,354.642 43.989 C 353.953 44.493,353.775 52.479,353.869 78.693 L 353.949 101.184 354.675 101.849 L 355.400 102.514 361.267 102.450 L 367.134 102.385 367.248 108.683 C 367.310 112.147,367.414 133.729,367.479 156.642 L 367.596 198.304 354.870 198.246 L 342.145 198.187 342.262 197.328 C 342.326 196.856,342.427 188.003,342.486 177.656 C 342.609 156.182,342.806 158.337,340.698 158.078 C 338.615 157.822,242.299 158.012,242.136 158.273 C 241.764 158.867,241.698 162.041,241.698 179.342 L 241.698 198.092 138.627 198.092 C 81.937 198.092,34.769 198.147,33.808 198.216 L 32.061 198.340 32.061 164.462 L 32.061 130.585 35.544 130.466 C 45.908 130.113,56.793 130.093,57.302 130.427 C 57.863 130.795,58.488 130.602,58.657 130.010 C 58.976 128.888,58.673 101.780,58.335 101.265 C 58.144 100.973,57.876 100.776,57.742 100.828 C 57.607 100.879,55.745 100.844,53.605 100.749 C 51.465 100.654,45.742 100.566,40.887 100.553 L 32.061 100.529 32.039 99.167 C 32.027 98.418,31.992 85.267,31.961 69.943 C 31.930 54.618,31.846 40.786,31.774 39.204 L 31.642 36.327 30.727 36.140 L 29.811 35.952 29.687 39.970 C 29.317 52.005,29.479 200.525,29.863 200.950 C 30.164 201.283,30.376 201.345,30.912 201.256 C 31.282 201.195,31.670 201.154,31.775 201.164 C 34.742 201.451,339.828 201.500,361.244 201.216 L 370.102 201.099 370.567 200.634 C 370.946 200.255,371.008 200.055,370.900 199.559 C 370.827 199.224,370.696 182.204,370.607 161.737 C 370.156 57.183,369.951 30.002,369.613 29.663 C 369.305 29.356,332.399 29.225,216.221 29.119 C 149.308 29.057,81.679 28.955,65.935 28.892 L 37.309 28.777 37.325 30.453 M71.509 32.324 C 71.531 32.345,71.578 35.080,71.613 38.402 L 71.679 44.441 71.097 44.310 C 70.777 44.238,64.568 44.179,57.300 44.179 L 44.084 44.179 44.084 38.168 L 44.084 32.156 57.777 32.220 C 65.308 32.256,71.487 32.302,71.509 32.324 M185.233 32.508 C 185.246 32.525,185.175 33.998,185.074 35.782 C 184.971 37.614,184.928 46.041,184.976 55.135 L 185.061 71.243 179.219 71.117 C 171.453 70.949,101.504 70.943,100.839 71.110 L 100.320 71.240 100.454 67.824 C 100.729 60.826,100.889 50.203,100.853 41.337 L 100.815 32.197 143.013 32.337 C 166.221 32.415,185.220 32.491,185.233 32.508 M367.176 73.114 L 367.176 100.999 366.746 100.884 C 366.510 100.820,363.863 100.767,360.865 100.766 L 355.412 100.763 355.388 74.952 C 355.374 60.756,355.306 48.352,355.236 47.386 L 355.109 45.632 360.236 45.617 C 363.056 45.609,365.706 45.528,366.126 45.437 C 366.546 45.347,366.954 45.263,367.032 45.251 C 367.111 45.239,367.176 57.777,367.176 73.114 M56.978 115.569 L 56.966 128.466 55.534 128.359 C 54.747 128.300,49.144 128.196,43.082 128.128 L 32.061 128.005 32.061 115.481 L 32.061 102.958 37.452 103.012 C 40.417 103.041,45.377 102.990,48.473 102.898 C 51.570 102.807,54.753 102.718,55.547 102.702 L 56.990 102.672 56.978 115.569 M340.723 177.385 C 340.788 187.042,340.893 195.708,340.956 196.643 L 341.072 198.343 338.904 198.218 C 337.712 198.150,315.706 198.093,290.001 198.092 L 243.266 198.092 243.396 196.210 C 243.563 193.785,243.558 165.368,243.390 162.148 L 243.262 159.697 291.933 159.763 L 340.605 159.828 340.723 177.385 " stroke="none" fill="#090909" fill-rule="evenodd"></path><path id="path2" d="M98.092 4.498 C 98.092 4.558,98.650 5.322,99.332 6.195 C 100.832 8.116,100.843 7.717,99.233 9.859 L 97.894 11.641 98.642 11.641 C 99.349 11.641,99.448 11.565,100.396 10.286 L 101.401 8.931 101.749 9.380 C 101.941 9.626,102.377 10.234,102.719 10.730 C 103.271 11.531,103.419 11.632,104.055 11.636 C 104.974 11.643,104.996 11.713,103.445 9.693 L 102.120 7.966 103.286 6.416 C 103.927 5.564,104.534 4.759,104.635 4.628 C 104.774 4.446,104.638 4.389,104.068 4.389 C 103.365 4.389,103.260 4.468,102.402 5.636 C 101.370 7.042,101.420 7.046,100.280 5.454 C 99.595 4.498,98.092 3.841,98.092 4.498 M121.899 12.229 C 121.643 12.378,121.565 12.677,121.565 13.511 L 121.565 14.599 102.692 14.599 C 81.683 14.599,82.901 14.523,83.054 15.828 C 83.176 16.876,82.633 16.848,102.899 16.869 L 121.565 16.889 121.565 17.713 C 121.565 19.699,122.212 19.724,124.769 17.836 C 127.060 16.145,127.166 15.860,126.009 14.508 C 124.471 12.712,122.729 11.746,121.899 12.229 M120.802 32.772 C 119.616 32.988,119.236 34.257,120.173 34.872 C 120.625 35.168,121.284 35.218,125.491 35.274 L 130.294 35.338 130.398 36.347 C 131.074 42.905,141.447 42.474,142.836 35.830 C 142.935 35.358,143.027 35.305,143.754 35.305 C 146.750 35.302,154.718 34.869,155.305 34.676 C 156.195 34.385,156.305 33.638,155.514 33.259 C 154.495 32.771,123.219 32.332,120.802 32.772 M14.797 36.689 C 14.527 37.074,14.498 39.406,14.509 59.351 L 14.522 81.584 13.797 81.646 C 12.009 81.798,12.007 82.638,13.790 85.588 C 15.802 88.918,16.165 88.954,18.646 86.075 C 21.570 82.681,21.673 80.866,18.915 81.320 C 18.431 81.400,17.691 81.471,17.271 81.477 L 16.508 81.489 16.561 59.327 C 16.609 39.541,16.583 37.117,16.318 36.712 C 15.938 36.132,15.195 36.121,14.797 36.689 M129.707 44.211 C 129.637 44.281,129.580 46.213,129.580 48.505 L 129.580 52.672 130.339 52.672 L 131.097 52.672 131.150 49.602 L 131.202 46.533 132.347 48.066 C 133.703 49.882,133.576 49.884,135.019 48.006 L 136.164 46.515 136.217 49.594 L 136.269 52.672 137.031 52.672 L 137.794 52.672 137.742 48.426 L 137.691 44.179 137.027 44.179 C 136.418 44.179,136.260 44.314,135.119 45.809 C 133.566 47.842,133.809 47.842,132.237 45.809 C 130.930 44.117,130.238 43.681,129.707 44.211 M141.698 44.184 C 141.594 44.223,141.143 44.348,140.697 44.463 C 139.396 44.797,139.498 45.611,140.840 45.611 L 141.794 45.611 141.794 48.569 L 141.794 51.527 140.840 51.527 C 139.907 51.527,139.885 51.539,139.885 52.099 L 139.885 52.672 142.462 52.672 L 145.038 52.672 145.038 52.099 C 145.038 51.539,145.017 51.527,144.084 51.527 L 143.130 51.527 143.130 47.805 L 143.130 44.084 142.510 44.099 C 142.168 44.107,141.803 44.146,141.698 44.184 M1.994 55.482 C 2.063 55.663,2.802 56.988,3.636 58.426 L 5.153 61.042 5.153 62.678 L 5.153 64.313 5.916 64.313 L 6.679 64.313 6.680 62.739 L 6.681 61.164 8.302 58.326 C 10.188 55.026,10.165 55.113,9.113 55.189 L 8.302 55.248 7.209 57.250 C 5.848 59.746,6.024 59.746,4.671 57.255 L 3.531 55.155 2.699 55.154 C 1.990 55.153,1.886 55.201,1.994 55.482 M364.585 57.848 C 364.512 57.965,364.409 59.802,364.356 61.930 L 364.259 65.798 363.696 65.636 C 361.239 64.931,358.755 67.832,359.018 71.101 C 359.250 73.993,361.620 76.606,363.730 76.297 C 364.427 76.194,364.444 76.263,364.571 79.700 C 364.676 82.547,365.147 83.666,365.666 82.301 C 366.243 80.786,366.406 58.602,365.846 57.927 C 365.562 57.586,364.777 57.536,364.585 57.848 M335.242 65.967 C 335.172 66.037,335.115 67.926,335.115 70.165 L 335.115 74.237 335.782 74.237 L 336.450 74.237 336.450 71.263 C 336.450 67.861,336.406 67.902,337.949 69.903 L 339.095 71.390 340.301 69.833 L 341.508 68.276 341.560 71.256 L 341.613 74.237 342.276 74.237 L 342.939 74.237 342.939 70.038 L 342.939 65.840 342.377 65.840 C 341.894 65.840,341.634 66.079,340.517 67.548 C 338.943 69.617,339.260 69.616,337.701 67.557 C 336.429 65.877,335.762 65.446,335.242 65.967 M346.231 68.640 C 343.668 72.300,343.668 72.328,346.279 72.328 L 348.282 72.328 348.282 73.282 L 348.282 74.237 348.950 74.237 L 349.618 74.237 349.618 73.282 C 349.618 72.392,349.650 72.328,350.095 72.328 C 350.498 72.328,350.573 72.239,350.573 71.756 C 350.573 71.272,350.498 71.183,350.095 71.183 L 349.618 71.183 349.618 68.511 L 349.618 65.840 348.903 65.843 C 348.198 65.846,348.156 65.891,346.231 68.640 M348.282 69.561 L 348.282 71.183 347.122 71.183 C 346.483 71.183,345.989 71.116,346.024 71.034 C 346.125 70.798,348.155 67.939,348.222 67.939 C 348.255 67.939,348.282 68.669,348.282 69.561 M50.055 90.578 C 48.693 91.250,48.219 93.321,49.427 93.321 C 50.139 93.321,50.191 93.284,50.191 92.778 C 50.191 91.660,51.925 91.112,52.566 92.027 C 53.227 92.972,53.004 93.427,50.763 95.698 C 49.136 97.347,48.664 97.941,48.664 98.340 L 48.664 98.855 51.527 98.855 L 54.389 98.855 54.389 98.187 L 54.389 97.519 52.541 97.519 L 50.692 97.519 52.165 96.161 C 53.851 94.608,54.230 93.996,54.230 92.831 C 54.230 90.777,52.044 89.598,50.055 90.578 M38.931 94.656 L 38.931 98.855 39.695 98.855 L 40.458 98.855 40.458 95.776 L 40.458 92.698 41.618 94.202 C 43.079 96.097,42.880 96.093,44.303 94.253 L 45.515 92.685 45.568 95.770 L 45.620 98.855 46.283 98.855 L 46.947 98.855 46.947 94.656 L 46.947 90.458 46.290 90.458 C 45.708 90.458,45.530 90.594,44.727 91.651 C 44.229 92.307,43.626 93.083,43.387 93.375 L 42.953 93.906 41.662 92.182 C 40.434 90.544,40.334 90.458,39.651 90.458 L 38.931 90.458 38.931 94.656 M51.221 103.701 C 48.747 104.853,34.644 113.515,33.540 114.561 C 32.847 115.218,32.827 116.089,33.496 116.528 C 34.114 116.932,34.916 116.651,37.340 115.180 L 39.023 114.158 39.693 114.874 C 43.302 118.735,51.244 113.472,49.338 108.482 C 49.155 108.003,49.036 107.584,49.073 107.553 C 49.111 107.521,49.785 107.043,50.573 106.491 C 52.979 104.804,53.482 104.131,52.824 103.473 C 52.509 103.157,52.336 103.182,51.221 103.701 M285.782 172.206 C 284.044 173.019,283.263 174.133,282.520 176.861 C 282.471 177.040,281.646 177.099,279.218 177.099 C 275.652 177.099,275.382 177.180,275.382 178.251 C 275.382 179.225,275.247 179.216,288.616 179.157 C 302.017 179.099,301.718 179.122,301.718 178.132 C 301.718 177.314,301.158 177.200,296.833 177.131 L 292.808 177.067 292.796 176.261 C 292.746 172.978,288.894 170.750,285.782 172.206 M317.264 172.531 C 315.804 172.956,314.842 175.000,316.102 175.000 C 316.590 175.000,316.794 174.916,316.794 174.714 C 316.794 173.813,318.508 173.304,319.150 174.013 C 319.920 174.864,319.340 175.954,318.116 175.954 C 317.387 175.954,317.366 175.972,317.366 176.622 C 317.366 177.274,317.385 177.290,318.130 177.290 C 319.488 177.290,320.043 178.274,319.253 179.278 C 318.654 180.040,317.435 179.928,316.892 179.063 C 316.444 178.348,315.267 178.135,315.268 178.769 C 315.270 179.946,316.626 181.005,318.130 181.005 C 320.524 181.005,321.993 178.319,320.326 176.989 L 319.812 176.580 320.307 176.085 C 322.001 174.391,319.781 171.799,317.264 172.531 M305.916 176.718 L 305.916 180.916 306.584 180.916 L 307.252 180.916 307.252 177.942 C 307.252 174.525,307.212 174.561,308.760 176.581 L 309.898 178.067 311.104 176.511 L 312.309 174.956 312.362 177.936 L 312.414 180.916 313.177 180.916 L 313.939 180.916 313.887 176.765 L 313.836 172.615 313.235 172.556 C 312.679 172.502,312.534 172.628,311.326 174.217 C 309.746 176.294,310.085 176.292,308.524 174.237 C 307.329 172.664,307.164 172.519,306.567 172.519 L 305.916 172.519 305.916 176.718 " stroke="none" fill="#e44f05" fill-rule="evenodd"></path><path id="path3" d="M20.076 16.260 C 19.742 16.594,19.796 16.944,20.216 17.168 C 20.494 17.317,20.658 17.292,20.883 17.067 C 21.109 16.841,21.134 16.677,20.985 16.399 C 20.761 15.979,20.411 15.925,20.076 16.260 M28.282 16.260 C 27.948 16.594,28.002 16.944,28.422 17.168 C 28.946 17.449,29.472 16.923,29.191 16.399 C 28.967 15.979,28.617 15.925,28.282 16.260 M39.255 16.937 C 38.227 19.162,38.879 24.427,40.181 24.427 C 40.592 24.427,40.663 24.363,40.548 24.094 C 39.902 22.569,39.813 22.105,39.806 20.229 C 39.800 18.324,39.868 17.970,40.548 16.365 C 40.933 15.456,39.683 16.009,39.255 16.937 M71.183 16.066 C 71.183 16.099,71.371 16.598,71.600 17.176 C 71.934 18.019,72.016 18.618,72.016 20.229 C 72.016 21.840,71.934 22.439,71.600 23.282 C 71.371 23.860,71.183 24.354,71.183 24.380 C 71.183 24.406,71.387 24.427,71.637 24.427 C 73.444 24.427,73.508 16.275,71.703 16.066 C 71.417 16.032,71.183 16.032,71.183 16.066 M11.301 16.453 C 8.548 17.043,8.006 21.249,10.518 22.530 C 12.597 23.591,15.111 22.428,15.400 20.272 C 15.748 17.679,13.846 15.907,11.301 16.453 M50.253 16.356 C 48.849 16.622,48.060 19.090,48.698 21.220 C 49.412 23.603,52.278 23.430,52.868 20.969 C 53.530 18.210,52.263 15.976,50.253 16.356 M67.620 16.356 C 66.216 16.622,65.426 19.090,66.064 21.220 C 66.778 23.603,69.644 23.430,70.235 20.969 C 70.896 18.210,69.630 15.976,67.620 16.356 M13.783 17.945 C 14.190 18.446,14.516 19.575,14.379 20.005 C 13.899 21.511,13.382 21.947,12.075 21.947 C 10.309 21.947,9.321 19.846,10.360 18.301 C 11.120 17.170,12.997 16.975,13.783 17.945 M51.635 17.836 C 52.471 19.112,51.870 21.947,50.763 21.947 C 49.918 21.947,49.562 21.268,49.562 19.656 C 49.562 17.566,50.765 16.509,51.635 17.836 M69.001 17.836 C 69.838 19.112,69.237 21.947,68.130 21.947 C 67.285 21.947,66.929 21.268,66.929 19.656 C 66.929 17.566,68.132 16.509,69.001 17.836 M16.603 20.515 L 16.603 22.901 17.080 22.901 C 17.548 22.901,17.557 22.872,17.557 21.417 C 17.557 19.739,17.855 19.084,18.618 19.084 C 18.988 19.084,19.084 18.986,19.084 18.607 C 19.084 18.053,18.611 17.965,18.023 18.410 C 17.546 18.771,17.366 18.772,17.366 18.416 C 17.366 18.257,17.197 18.130,16.985 18.130 C 16.623 18.130,16.603 18.257,16.603 20.515 M20.038 20.515 L 20.038 22.901 20.515 22.901 L 20.992 22.901 20.992 20.515 L 20.992 18.130 20.515 18.130 L 20.038 18.130 20.038 20.515 M23.027 18.522 C 21.933 19.382,21.933 21.458,23.027 22.318 C 23.643 22.803,24.918 22.844,25.414 22.394 C 25.746 22.094,25.763 22.112,25.763 22.765 C 25.763 23.918,24.729 24.393,23.803 23.664 C 23.280 23.253,22.519 23.151,22.519 23.492 C 22.519 24.045,23.704 24.809,24.561 24.809 C 26.424 24.809,26.906 23.899,26.907 20.372 L 26.908 18.130 26.431 18.130 C 26.134 18.130,25.954 18.238,25.954 18.416 C 25.954 18.772,25.774 18.771,25.297 18.410 C 24.759 18.003,23.615 18.059,23.027 18.522 M28.244 20.515 L 28.244 22.901 28.721 22.901 L 29.198 22.901 29.198 20.515 L 29.198 18.130 28.721 18.130 L 28.244 18.130 28.244 20.515 M30.725 20.515 L 30.725 22.901 31.202 22.901 C 31.674 22.901,31.679 22.882,31.679 21.279 C 31.679 19.539,31.986 18.893,32.811 18.893 C 33.571 18.893,33.779 19.388,33.779 21.197 C 33.779 22.887,33.782 22.901,34.256 22.901 L 34.733 22.901 34.733 20.984 C 34.733 18.426,33.606 17.305,32.145 18.410 C 31.669 18.771,31.489 18.772,31.489 18.416 C 31.489 18.257,31.319 18.130,31.107 18.130 C 30.746 18.130,30.725 18.257,30.725 20.515 M41.221 18.202 C 41.221 18.242,41.607 18.771,42.078 19.378 C 42.591 20.038,42.873 20.565,42.780 20.689 C 42.695 20.803,42.310 21.292,41.923 21.775 C 41.079 22.832,41.069 22.901,41.768 22.901 C 42.190 22.901,42.435 22.727,42.844 22.137 C 43.134 21.718,43.435 21.374,43.511 21.374 C 43.588 21.374,43.888 21.718,44.179 22.137 C 44.588 22.727,44.833 22.901,45.255 22.901 C 45.840 22.901,45.955 22.693,45.554 22.360 C 45.418 22.247,45.031 21.772,44.695 21.304 L 44.084 20.454 44.810 19.530 C 45.897 18.148,45.903 18.130,45.253 18.130 C 44.804 18.130,44.566 18.293,44.144 18.889 C 43.849 19.307,43.564 19.648,43.511 19.648 C 43.459 19.648,43.174 19.307,42.879 18.889 C 42.421 18.241,41.221 17.744,41.221 18.202 M46.552 18.432 C 46.370 18.651,46.356 18.822,46.501 19.052 C 46.786 19.504,47.356 19.565,47.642 19.174 C 48.172 18.449,47.127 17.739,46.552 18.432 M58.397 18.246 C 58.397 18.324,58.800 19.371,59.292 20.573 L 60.187 22.759 59.864 23.667 C 59.457 24.813,59.457 24.809,59.974 24.809 C 60.355 24.809,60.560 24.428,61.693 21.613 C 63.163 17.961,63.123 18.130,62.522 18.130 C 62.122 18.130,61.987 18.341,61.432 19.840 C 61.084 20.780,60.752 21.503,60.695 21.447 C 60.638 21.391,60.325 20.643,59.999 19.785 C 59.481 18.423,59.342 18.218,58.901 18.165 C 58.624 18.132,58.397 18.168,58.397 18.246 M63.727 18.432 C 63.545 18.651,63.531 18.822,63.677 19.052 C 63.961 19.504,64.532 19.565,64.818 19.174 C 65.347 18.449,64.303 17.739,63.727 18.432 M25.077 19.110 C 26.107 19.579,26.069 21.313,25.019 21.748 C 23.480 22.385,22.411 19.847,23.913 19.122 C 24.463 18.856,24.517 18.855,25.077 19.110 M46.552 21.867 C 46.370 22.086,46.356 22.257,46.501 22.487 C 46.786 22.939,47.356 23.000,47.642 22.609 C 48.172 21.884,47.127 21.174,46.552 21.867 M63.727 21.867 C 63.545 22.086,63.531 22.257,63.677 22.487 C 63.961 22.939,64.532 23.000,64.818 22.609 C 65.347 21.884,64.303 21.174,63.727 21.867 M53.919 22.639 C 53.846 23.125,53.741 23.640,53.686 23.784 C 53.617 23.961,53.734 24.046,54.048 24.046 C 54.460 24.046,55.153 22.690,55.153 21.882 C 55.153 21.172,54.036 21.856,53.919 22.639 M29.754 25.290 C 26.083 26.449,24.861 31.391,27.529 34.286 C 32.396 39.565,40.507 32.730,36.148 27.022 C 34.851 25.323,32.051 24.564,29.754 25.290 " stroke="none" fill="#0b96c4" fill-rule="evenodd"></path><path id="path4" d="M121.374 13.635 L 121.374 14.483 120.468 14.554 L 119.561 14.626 120.563 14.660 L 121.565 14.695 121.565 13.740 C 121.565 13.216,121.522 12.786,121.469 12.786 C 121.417 12.786,121.374 13.168,121.374 13.635 M84.781 14.641 C 85.069 14.684,85.542 14.684,85.830 14.641 C 86.119 14.597,85.883 14.561,85.305 14.561 C 84.728 14.561,84.492 14.597,84.781 14.641 M88.227 16.937 C 89.571 16.969,91.718 16.969,92.998 16.936 C 94.277 16.903,93.177 16.877,90.553 16.877 C 87.929 16.877,86.882 16.904,88.227 16.937 M117.605 16.934 C 118.104 16.973,118.919 16.973,119.418 16.934 C 119.917 16.895,119.509 16.863,118.511 16.863 C 117.514 16.863,117.106 16.895,117.605 16.934 M16.486 20.515 C 16.487 21.880,16.517 22.413,16.554 21.700 C 16.591 20.987,16.590 19.871,16.553 19.219 C 16.516 18.568,16.486 19.151,16.486 20.515 M19.921 20.515 C 19.922 21.880,19.952 22.413,19.989 21.700 C 20.026 20.987,20.026 19.871,19.988 19.219 C 19.951 18.568,19.921 19.151,19.921 20.515 M28.128 20.515 C 28.128 21.880,28.158 22.413,28.195 21.700 C 28.232 20.987,28.232 19.871,28.195 19.219 C 28.157 18.568,28.127 19.151,28.128 20.515 M30.609 20.515 C 30.609 21.880,30.639 22.413,30.676 21.700 C 30.713 20.987,30.713 19.871,30.675 19.219 C 30.638 18.568,30.608 19.151,30.609 20.515 M72.008 20.229 C 72.008 20.911,72.042 21.190,72.085 20.849 C 72.127 20.508,72.127 19.950,72.085 19.609 C 72.042 19.268,72.008 19.547,72.008 20.229 M38.607 20.229 C 38.607 20.806,38.643 21.042,38.686 20.754 C 38.730 20.465,38.730 19.993,38.686 19.704 C 38.643 19.416,38.607 19.652,38.607 20.229 M34.802 21.183 C 34.802 22.180,34.834 22.588,34.873 22.090 C 34.912 21.591,34.912 20.775,34.873 20.277 C 34.834 19.778,34.802 20.186,34.802 21.183 M54.344 21.700 C 54.581 21.746,54.925 21.744,55.107 21.696 C 55.290 21.648,55.095 21.611,54.676 21.613 C 54.256 21.615,54.106 21.654,54.344 21.700 M11.787 23.036 C 12.024 23.081,12.367 23.080,12.550 23.032 C 12.732 22.984,12.538 22.947,12.118 22.949 C 11.698 22.951,11.549 22.990,11.787 23.036 M50.429 23.032 C 50.613 23.080,50.914 23.080,51.097 23.032 C 51.281 22.984,51.131 22.945,50.763 22.945 C 50.396 22.945,50.246 22.984,50.429 23.032 M67.796 23.032 C 67.979 23.080,68.280 23.080,68.464 23.032 C 68.647 22.984,68.497 22.945,68.130 22.945 C 67.762 22.945,67.612 22.984,67.796 23.032 M37.261 28.758 C 37.445 28.806,37.746 28.806,37.929 28.758 C 38.113 28.710,37.963 28.670,37.595 28.670 C 37.228 28.670,37.078 28.710,37.261 28.758 M99.952 28.960 C 119.816 28.987,152.321 28.987,172.185 28.960 C 192.049 28.933,175.797 28.911,136.069 28.911 C 96.341 28.911,80.088 28.933,99.952 28.960 M247.471 29.151 C 260.093 29.178,280.747 29.178,293.368 29.151 C 305.990 29.124,295.663 29.102,270.420 29.102 C 245.177 29.102,234.850 29.124,247.471 29.151 M349.202 29.341 C 351.965 29.371,356.431 29.371,359.126 29.341 C 361.821 29.312,359.561 29.287,354.103 29.287 C 348.645 29.287,346.440 29.312,349.202 29.341 M366.657 29.530 C 367.158 29.569,367.931 29.569,368.374 29.529 C 368.817 29.489,368.406 29.456,367.462 29.457 C 366.517 29.458,366.155 29.490,366.657 29.530 M369.786 30.821 C 369.848 31.555,369.931 32.192,369.969 32.236 C 370.118 32.407,370.001 30.225,369.842 29.866 C 369.735 29.626,369.715 29.978,369.786 30.821 M40.254 32.201 C 42.344 32.258,42.539 32.295,42.618 32.642 C 42.687 32.947,42.699 32.937,42.678 32.589 C 42.653 32.165,42.606 32.156,40.315 32.147 L 37.976 32.138 40.254 32.201 M44.704 32.200 C 45.098 32.241,45.742 32.241,46.135 32.200 C 46.529 32.159,46.207 32.125,45.420 32.125 C 44.633 32.125,44.311 32.159,44.704 32.200 M73.176 37.977 C 73.176 41.178,73.202 42.488,73.234 40.887 C 73.266 39.287,73.266 36.667,73.234 35.067 C 73.202 33.466,73.176 34.776,73.176 37.977 M93.171 32.395 L 98.651 32.449 98.713 34.402 L 98.774 36.355 98.815 34.303 L 98.855 32.252 93.273 32.297 L 87.691 32.341 93.171 32.395 M100.805 34.781 L 100.846 37.309 100.906 34.871 L 100.966 32.434 123.971 32.455 C 136.624 32.467,147.027 32.426,147.089 32.364 C 147.150 32.302,136.753 32.252,123.982 32.252 L 100.763 32.252 100.805 34.781 M44.129 38.311 L 44.084 44.275 44.513 44.253 C 44.832 44.236,44.857 44.208,44.612 44.144 C 44.308 44.064,44.276 43.573,44.227 38.202 L 44.174 32.347 44.129 38.311 M182.859 32.585 C 184.776 32.637,185.101 32.692,185.175 32.974 C 185.238 33.213,185.267 33.186,185.283 32.872 C 185.305 32.447,185.283 32.443,182.968 32.484 L 180.630 32.525 182.859 32.585 M213.406 32.586 C 227.655 32.613,250.971 32.613,265.219 32.586 C 279.468 32.559,267.810 32.537,239.313 32.537 C 210.816 32.537,199.158 32.559,213.406 32.586 M362.548 32.585 C 363.414 32.620,364.831 32.620,365.697 32.585 C 366.563 32.549,365.854 32.520,364.122 32.520 C 362.390 32.520,361.682 32.549,362.548 32.585 M148.524 32.771 C 148.814 32.814,149.243 32.813,149.478 32.768 C 149.713 32.723,149.475 32.687,148.950 32.688 C 148.426 32.690,148.234 32.727,148.524 32.771 M343.094 32.776 C 344.806 32.808,347.554 32.808,349.201 32.776 C 350.847 32.745,349.447 32.719,346.088 32.719 C 342.729 32.719,341.382 32.745,343.094 32.776 M187.653 34.542 C 187.653 35.119,187.688 35.355,187.732 35.067 C 187.776 34.778,187.776 34.306,187.732 34.017 C 187.688 33.729,187.653 33.965,187.653 34.542 M27.481 34.447 C 27.837 34.814,28.171 35.115,28.224 35.115 C 28.276 35.115,28.028 34.814,27.672 34.447 C 27.316 34.079,26.981 33.779,26.929 33.779 C 26.876 33.779,27.125 34.079,27.481 34.447 M369.923 36.450 C 369.923 37.972,369.953 38.595,369.989 37.834 C 370.025 37.073,370.025 35.828,369.989 35.067 C 369.953 34.306,369.923 34.928,369.923 36.450 M35.580 34.590 L 35.019 35.210 35.639 34.649 C 36.217 34.127,36.347 33.969,36.200 33.969 C 36.167 33.969,35.888 34.249,35.580 34.590 M184.989 35.782 C 184.990 36.622,185.023 36.942,185.064 36.493 C 185.104 36.044,185.103 35.357,185.062 34.966 C 185.021 34.575,184.988 34.943,184.989 35.782 M366.943 39.313 C 366.914 41.937,366.954 44.084,367.032 44.084 C 367.111 44.084,367.176 41.937,367.176 39.313 C 367.176 36.689,367.136 34.542,367.087 34.542 C 367.038 34.542,366.973 36.689,366.943 39.313 M146.994 35.251 C 147.283 35.295,147.755 35.295,148.044 35.251 C 148.333 35.207,148.096 35.172,147.519 35.172 C 146.942 35.172,146.706 35.207,146.994 35.251 M29.579 37.843 L 29.673 39.981 29.729 37.994 C 29.760 36.901,29.717 35.938,29.635 35.855 C 29.552 35.772,29.527 36.667,29.579 37.843 M31.745 37.691 C 31.746 38.531,31.779 38.850,31.819 38.401 C 31.860 37.953,31.859 37.266,31.818 36.875 C 31.777 36.484,31.744 36.851,31.745 37.691 M187.876 50.191 C 187.876 57.171,187.900 60.026,187.929 56.536 C 187.958 53.046,187.958 47.335,187.929 43.845 C 187.900 40.355,187.876 43.211,187.876 50.191 M14.405 56.584 C 14.405 66.660,14.428 70.754,14.456 65.682 C 14.484 60.610,14.484 52.365,14.456 47.361 C 14.428 42.358,14.405 46.508,14.405 56.584 M184.820 49.332 C 184.820 53.845,184.845 55.665,184.876 53.374 C 184.906 51.084,184.906 47.392,184.876 45.168 C 184.845 42.945,184.820 44.819,184.820 49.332 M16.694 57.538 C 16.694 66.460,16.718 70.082,16.746 65.587 C 16.775 61.092,16.775 53.792,16.746 49.365 C 16.718 44.939,16.694 48.616,16.694 57.538 M71.534 43.321 C 71.499 43.951,71.534 44.466,71.613 44.466 C 71.691 44.466,71.756 43.950,71.756 43.321 C 71.756 41.842,71.618 41.843,71.534 43.321 M100.842 45.611 C 100.842 47.448,100.870 48.199,100.905 47.281 C 100.940 46.362,100.940 44.859,100.905 43.941 C 100.870 43.022,100.842 43.774,100.842 45.611 M42.614 44.275 C 42.614 44.852,42.650 45.088,42.694 44.800 C 42.738 44.511,42.738 44.039,42.694 43.750 C 42.650 43.461,42.614 43.698,42.614 44.275 M356.542 43.652 C 357.044 43.691,357.817 43.691,358.260 43.651 C 358.702 43.611,358.292 43.579,357.347 43.579 C 356.403 43.580,356.040 43.613,356.542 43.652 M362.934 43.651 C 363.383 43.692,364.070 43.691,364.461 43.650 C 364.852 43.609,364.485 43.576,363.645 43.577 C 362.805 43.578,362.486 43.611,362.934 43.651 M31.960 54.866 C 31.960 60.954,31.984 63.472,32.013 60.462 C 32.043 57.452,32.043 52.471,32.013 49.393 C 31.984 46.316,31.960 48.779,31.960 54.866 M50.239 44.036 C 52.417 44.067,55.980 44.067,58.158 44.036 C 60.336 44.005,58.554 43.980,54.198 43.980 C 49.843 43.980,48.061 44.005,50.239 44.036 M68.841 44.222 C 69.180 44.264,69.781 44.265,70.177 44.223 C 70.573 44.182,70.296 44.147,69.561 44.147 C 68.826 44.146,68.502 44.180,68.841 44.222 M370.123 50.286 C 370.123 53.645,370.149 54.992,370.181 53.280 C 370.213 51.568,370.213 48.820,370.181 47.173 C 370.149 45.527,370.123 46.927,370.123 50.286 M29.482 74.714 C 29.482 91.193,29.505 97.906,29.532 89.632 C 29.560 81.358,29.560 67.875,29.532 59.670 C 29.505 51.465,29.482 58.235,29.482 74.714 M366.937 59.685 C 366.964 67.636,367.007 77.791,367.035 82.252 C 367.062 86.713,367.105 80.208,367.130 67.796 C 367.155 55.384,367.111 45.229,367.032 45.229 C 366.954 45.229,366.911 51.734,366.937 59.685 M356.925 45.752 C 357.532 45.790,358.477 45.790,359.024 45.751 C 359.571 45.713,359.074 45.682,357.920 45.682 C 356.765 45.683,356.318 45.714,356.925 45.752 M362.078 45.752 C 362.685 45.790,363.630 45.790,364.177 45.751 C 364.724 45.713,364.227 45.682,363.073 45.682 C 361.918 45.683,361.470 45.714,362.078 45.752 M66.087 46.134 C 66.905 46.170,68.193 46.170,68.950 46.134 C 69.706 46.098,69.036 46.068,67.462 46.069 C 65.887 46.069,65.269 46.099,66.087 46.134 M355.205 46.756 C 355.205 47.228,355.242 47.421,355.287 47.185 C 355.333 46.949,355.333 46.563,355.287 46.326 C 355.242 46.090,355.205 46.283,355.205 46.756 M50.918 46.326 C 52.420 46.358,54.825 46.358,56.262 46.326 C 57.698 46.293,56.469 46.267,53.531 46.267 C 50.592 46.267,49.416 46.294,50.918 46.326 M61.979 46.322 C 62.322 46.364,62.837 46.363,63.124 46.320 C 63.410 46.276,63.130 46.241,62.500 46.242 C 61.870 46.243,61.636 46.279,61.979 46.322 M353.893 50.382 C 353.893 51.904,353.922 52.526,353.958 51.765 C 353.995 51.004,353.995 49.759,353.958 48.998 C 353.922 48.237,353.893 48.860,353.893 50.382 M355.433 62.023 C 355.433 68.583,355.457 71.267,355.487 67.987 C 355.516 64.707,355.516 59.339,355.487 56.059 C 355.457 52.779,355.433 55.463,355.433 62.023 M100.845 57.061 C 100.845 59.423,100.872 60.389,100.906 59.208 C 100.939 58.027,100.939 56.095,100.906 54.914 C 100.872 53.733,100.845 54.699,100.845 57.061 M98.744 57.824 C 98.744 59.871,98.772 60.708,98.806 59.685 C 98.841 58.662,98.841 56.987,98.806 55.964 C 98.772 54.940,98.744 55.778,98.744 57.824 M366.075 60.496 C 366.075 60.864,366.114 61.014,366.162 60.830 C 366.210 60.646,366.210 60.346,366.162 60.162 C 366.114 59.979,366.075 60.129,366.075 60.496 M100.641 63.740 C 100.641 64.738,100.673 65.146,100.713 64.647 C 100.752 64.148,100.752 63.333,100.713 62.834 C 100.673 62.335,100.641 62.743,100.641 63.740 M98.924 64.122 C 98.924 65.119,98.956 65.527,98.995 65.029 C 99.035 64.530,99.035 63.714,98.995 63.216 C 98.956 62.717,98.924 63.125,98.924 64.122 M353.716 77.195 C 353.716 84.437,353.740 87.372,353.769 83.717 C 353.798 80.062,353.798 74.136,353.769 70.549 C 353.740 66.962,353.716 69.952,353.716 77.195 M185.000 67.176 C 185.000 68.802,185.030 69.468,185.066 68.655 C 185.101 67.841,185.101 66.510,185.066 65.697 C 185.030 64.883,185.000 65.549,185.000 67.176 M370.321 83.874 C 370.321 94.055,370.344 98.192,370.372 93.068 C 370.400 87.943,370.400 79.613,370.372 74.556 C 370.344 69.500,370.321 73.693,370.321 83.874 M343.021 70.038 C 343.021 72.400,343.048 73.366,343.081 72.185 C 343.115 71.004,343.115 69.072,343.081 67.891 C 343.048 66.710,343.021 67.677,343.021 70.038 M100.422 68.941 C 100.386 70.966,100.414 71.183,100.716 71.180 C 100.946 71.178,100.978 71.132,100.818 71.030 C 100.666 70.934,100.565 70.163,100.524 68.791 L 100.463 66.698 100.422 68.941 M99.121 69.656 C 99.121 71.073,99.151 71.653,99.187 70.945 C 99.224 70.236,99.224 69.077,99.187 68.368 C 99.151 67.660,99.121 68.240,99.121 69.656 M336.528 71.279 C 336.528 72.958,336.557 73.619,336.593 72.749 C 336.628 71.878,336.628 70.504,336.592 69.695 C 336.556 68.887,336.527 69.599,336.528 71.279 M187.657 69.656 C 187.657 70.339,187.691 70.618,187.733 70.277 C 187.776 69.936,187.776 69.377,187.733 69.036 C 187.691 68.695,187.657 68.974,187.657 69.656 M101.959 70.938 C 102.249 70.982,102.678 70.981,102.913 70.936 C 103.148 70.891,102.910 70.855,102.385 70.856 C 101.861 70.858,101.669 70.895,101.959 70.938 M115.425 70.945 C 121.547 70.973,131.509 70.973,137.562 70.945 C 143.616 70.917,138.607 70.894,126.431 70.894 C 114.256 70.894,109.303 70.917,115.425 70.945 M179.055 71.134 C 179.869 71.170,181.200 71.170,182.013 71.134 C 182.827 71.098,182.161 71.069,180.534 71.069 C 178.907 71.069,178.242 71.098,179.055 71.134 M345.372 72.469 C 345.923 72.507,346.825 72.507,347.376 72.469 C 347.927 72.430,347.476 72.399,346.374 72.399 C 345.272 72.399,344.821 72.430,345.372 72.469 M183.681 73.616 C 184.730 73.651,185.670 73.762,185.771 73.862 C 186.065 74.157,186.764 74.074,187.038 73.712 C 187.253 73.428,187.251 73.413,187.023 73.616 C 186.703 73.902,185.948 73.931,185.782 73.664 C 185.714 73.553,184.855 73.490,183.720 73.513 L 181.775 73.553 183.681 73.616 M138.517 73.807 C 145.794 73.835,157.645 73.835,164.853 73.807 C 172.061 73.780,166.107 73.757,151.622 73.757 C 137.137 73.757,131.240 73.780,138.517 73.807 M104.819 73.997 C 105.947 74.031,107.793 74.031,108.922 73.997 C 110.050 73.964,109.127 73.936,106.870 73.936 C 104.614 73.936,103.690 73.964,104.819 73.997 M366.075 75.573 C 366.075 75.940,366.114 76.090,366.162 75.906 C 366.210 75.723,366.210 75.422,366.162 75.239 C 366.114 75.055,366.075 75.205,366.075 75.573 M355.406 77.958 C 355.407 78.693,355.441 78.970,355.483 78.574 C 355.524 78.178,355.523 77.577,355.481 77.238 C 355.439 76.899,355.405 77.223,355.406 77.958 M16.460 80.821 C 16.462 81.240,16.502 81.390,16.547 81.152 C 16.593 80.915,16.591 80.571,16.543 80.389 C 16.496 80.207,16.458 80.401,16.460 80.821 M14.519 81.048 C 14.507 81.386,14.368 81.480,13.788 81.540 L 13.073 81.615 13.794 81.647 C 14.527 81.680,14.840 81.391,14.632 80.875 C 14.578 80.740,14.527 80.818,14.519 81.048 M31.956 91.221 C 31.956 94.843,31.982 96.324,32.013 94.513 C 32.044 92.703,32.044 89.740,32.013 87.929 C 31.982 86.119,31.956 87.600,31.956 91.221 M355.425 91.889 C 355.425 94.303,355.453 95.265,355.486 94.025 C 355.519 92.786,355.519 90.811,355.486 89.636 C 355.452 88.461,355.425 89.475,355.425 91.889 M39.361 90.399 C 39.544 90.447,39.845 90.447,40.029 90.399 C 40.212 90.351,40.062 90.311,39.695 90.311 C 39.327 90.311,39.177 90.351,39.361 90.399 M46.040 90.399 C 46.224 90.447,46.524 90.447,46.708 90.399 C 46.892 90.351,46.741 90.311,46.374 90.311 C 46.007 90.311,45.856 90.351,46.040 90.399 M353.899 96.565 C 353.899 99.136,353.926 100.188,353.959 98.903 C 353.992 97.617,353.992 95.513,353.959 94.227 C 353.926 92.941,353.899 93.993,353.899 96.565 M54.437 98.187 C 54.440 98.607,54.479 98.756,54.524 98.519 C 54.570 98.281,54.568 97.938,54.520 97.755 C 54.473 97.573,54.435 97.767,54.437 98.187 M33.349 100.523 C 34.110 100.560,35.355 100.560,36.116 100.523 C 36.877 100.487,36.255 100.458,34.733 100.458 C 33.211 100.458,32.588 100.487,33.349 100.523 M41.460 100.524 C 42.588 100.558,44.435 100.558,45.563 100.524 C 46.691 100.490,45.768 100.463,43.511 100.463 C 41.255 100.463,40.332 100.490,41.460 100.524 M52.153 100.713 C 52.654 100.752,53.427 100.752,53.870 100.712 C 54.313 100.672,53.903 100.640,52.958 100.640 C 52.013 100.641,51.651 100.674,52.153 100.713 M357.968 100.715 C 359.358 100.748,361.634 100.748,363.025 100.715 C 364.416 100.683,363.278 100.656,360.496 100.656 C 357.715 100.656,356.577 100.683,357.968 100.715 M58.654 103.626 C 58.654 104.518,58.687 104.883,58.728 104.437 C 58.768 103.991,58.768 103.261,58.728 102.815 C 58.687 102.369,58.654 102.734,58.654 103.626 M366.269 102.422 C 366.453 102.470,366.753 102.470,366.937 102.422 C 367.121 102.374,366.970 102.334,366.603 102.334 C 366.236 102.334,366.085 102.374,366.269 102.422 M359.017 102.623 C 360.041 102.658,361.715 102.658,362.739 102.623 C 363.762 102.589,362.925 102.561,360.878 102.561 C 358.831 102.561,357.994 102.589,359.017 102.623 M54.528 102.809 C 54.867 102.852,55.468 102.852,55.864 102.811 C 56.260 102.770,55.983 102.735,55.248 102.734 C 54.513 102.734,54.189 102.767,54.528 102.809 M56.949 106.107 C 56.949 108.049,56.978 108.843,57.012 107.872 C 57.047 106.901,57.047 105.313,57.012 104.342 C 56.978 103.371,56.949 104.165,56.949 106.107 M32.300 102.994 C 32.483 103.042,32.784 103.042,32.968 102.994 C 33.151 102.946,33.001 102.907,32.634 102.907 C 32.266 102.907,32.116 102.946,32.300 102.994 M47.376 103.004 C 48.084 103.041,49.244 103.041,49.952 103.004 C 50.661 102.967,50.081 102.937,48.664 102.937 C 47.247 102.937,46.667 102.967,47.376 103.004 M37.746 103.195 C 38.406 103.232,39.437 103.232,40.036 103.194 C 40.636 103.156,40.095 103.126,38.836 103.126 C 37.576 103.127,37.086 103.158,37.746 103.195 M367.268 128.626 C 367.268 139.699,367.291 144.229,367.319 138.693 C 367.347 133.156,367.347 124.096,367.319 118.559 C 367.291 113.022,367.268 117.552,367.268 128.626 M58.866 116.985 C 58.866 121.341,58.891 123.123,58.922 120.945 C 58.952 118.767,58.952 115.203,58.922 113.025 C 58.891 110.847,58.866 112.629,58.866 116.985 M56.764 117.271 C 56.764 120.525,56.790 121.883,56.822 120.289 C 56.854 118.695,56.854 116.032,56.822 114.373 C 56.790 112.713,56.764 114.017,56.764 117.271 M370.511 127.863 C 370.511 136.102,370.534 139.473,370.563 135.353 C 370.592 131.233,370.592 124.492,370.563 120.372 C 370.534 116.252,370.511 119.623,370.511 127.863 M32.105 124.094 L 32.061 128.053 35.830 128.010 L 39.599 127.967 35.930 127.911 L 32.260 127.854 32.204 123.994 L 32.148 120.134 32.105 124.094 M56.870 126.515 L 56.870 128.221 56.155 128.296 L 55.439 128.371 56.250 128.403 L 57.061 128.435 57.061 126.622 C 57.061 125.625,57.018 124.809,56.966 124.809 C 56.913 124.809,56.870 125.577,56.870 126.515 M58.657 127.672 C 58.657 128.669,58.689 129.077,58.728 128.578 C 58.767 128.080,58.767 127.264,58.728 126.765 C 58.689 126.267,58.657 126.675,58.657 127.672 M45.181 128.196 C 46.257 128.230,48.018 128.230,49.094 128.196 C 50.169 128.162,49.289 128.134,47.137 128.134 C 44.986 128.134,44.105 128.162,45.181 128.196 M29.243 129.198 C 29.243 129.566,29.282 129.716,29.330 129.532 C 29.378 129.349,29.378 129.048,29.330 128.865 C 29.282 128.681,29.243 128.831,29.243 129.198 M49.486 130.295 C 50.725 130.329,52.700 130.328,53.875 130.295 C 55.050 130.262,54.036 130.234,51.622 130.235 C 49.208 130.235,48.247 130.262,49.486 130.295 M37.462 130.486 C 38.385 130.521,39.845 130.521,40.706 130.485 C 41.567 130.450,40.811 130.421,39.027 130.422 C 37.242 130.422,36.538 130.451,37.462 130.486 M255.677 157.968 C 262.631 157.995,274.010 157.995,280.964 157.968 C 287.917 157.940,282.228 157.917,268.321 157.917 C 254.413 157.917,248.724 157.940,255.677 157.968 M338.031 157.965 C 338.532 158.004,339.305 158.004,339.748 157.964 C 340.191 157.924,339.781 157.892,338.836 157.892 C 337.891 157.893,337.529 157.925,338.031 157.965 M342.648 174.905 C 342.648 183.616,342.672 187.208,342.700 182.886 C 342.729 178.565,342.729 171.437,342.700 167.047 C 342.672 162.657,342.648 166.193,342.648 174.905 M243.359 161.307 L 243.397 162.882 243.462 161.403 L 243.527 159.925 267.613 159.876 L 291.698 159.827 267.510 159.780 L 243.321 159.733 243.359 161.307 M339.065 159.874 L 340.439 159.940 340.508 161.029 L 340.577 162.118 340.613 160.926 L 340.649 159.733 339.170 159.771 L 337.691 159.809 339.065 159.874 M370.702 178.721 C 370.702 189.218,370.726 193.539,370.754 188.326 C 370.782 183.112,370.782 174.524,370.754 169.242 C 370.726 163.959,370.702 168.225,370.702 178.721 M302.828 160.067 C 305.801 160.096,310.610 160.096,313.515 160.067 C 316.421 160.037,313.989 160.013,308.111 160.013 C 302.233 160.013,299.856 160.037,302.828 160.067 M326.968 160.067 C 328.733 160.098,331.567 160.098,333.266 160.066 C 334.965 160.035,333.521 160.009,330.057 160.009 C 326.594 160.009,325.203 160.035,326.968 160.067 M367.457 174.714 C 367.457 182.796,367.481 186.074,367.509 181.999 C 367.538 177.924,367.538 171.312,367.509 167.305 C 367.481 163.298,367.457 166.632,367.457 174.714 M241.673 162.118 C 241.673 163.168,241.705 163.573,241.744 163.018 C 241.783 162.464,241.782 161.605,241.743 161.110 C 241.704 160.615,241.672 161.069,241.673 162.118 M340.547 171.756 C 340.547 177.056,340.571 179.225,340.601 176.574 C 340.631 173.924,340.631 169.587,340.601 166.937 C 340.571 164.287,340.547 166.455,340.547 171.756 M243.600 173.092 C 243.600 178.077,243.624 180.117,243.654 177.624 C 243.685 175.131,243.685 171.052,243.654 168.559 C 243.624 166.066,243.600 168.106,243.600 173.092 M241.503 179.389 C 241.503 186.999,241.526 190.112,241.555 186.307 C 241.584 182.502,241.584 176.276,241.555 172.471 C 241.526 168.667,241.503 171.780,241.503 179.389 M307.329 177.958 C 307.329 179.637,307.359 180.299,307.394 179.428 C 307.429 178.557,307.429 177.183,307.394 176.375 C 307.358 175.566,307.329 176.279,307.329 177.958 M282.968 179.341 C 285.093 179.372,288.571 179.372,290.697 179.341 C 292.822 179.311,291.083 179.286,286.832 179.286 C 282.581 179.286,280.842 179.311,282.968 179.341 M243.596 188.645 C 243.596 191.689,243.622 192.907,243.654 191.353 C 243.686 189.798,243.686 187.308,243.654 185.818 C 243.622 184.329,243.596 185.601,243.596 188.645 M340.528 186.546 C 340.528 187.595,340.560 188.000,340.599 187.446 C 340.638 186.891,340.637 186.033,340.598 185.537 C 340.559 185.042,340.527 185.496,340.528 186.546 M32.141 191.889 C 32.141 193.884,32.169 194.673,32.203 193.645 C 32.238 192.616,32.238 190.984,32.203 190.019 C 32.169 189.053,32.140 189.895,32.141 191.889 M340.721 191.985 C 340.721 193.192,340.752 193.686,340.790 193.082 C 340.828 192.479,340.828 191.491,340.790 190.887 C 340.752 190.284,340.721 190.778,340.721 191.985 M29.265 192.939 C 29.265 193.831,29.298 194.196,29.338 193.750 C 29.378 193.304,29.378 192.574,29.338 192.128 C 29.298 191.682,29.265 192.047,29.265 192.939 M342.434 193.798 C 342.434 194.742,342.466 195.153,342.506 194.710 C 342.546 194.267,342.546 193.494,342.507 192.992 C 342.467 192.491,342.435 192.853,342.434 193.798 M241.603 196.088 L 241.603 197.900 138.502 197.948 L 35.401 197.997 138.597 198.044 L 241.794 198.092 241.794 196.183 C 241.794 195.134,241.751 194.275,241.698 194.275 C 241.646 194.275,241.603 195.091,241.603 196.088 M340.897 196.374 C 340.897 196.951,340.933 197.188,340.976 196.899 C 341.020 196.610,341.020 196.138,340.976 195.849 C 340.933 195.561,340.897 195.797,340.897 196.374 M243.357 196.899 L 243.321 198.092 266.174 198.045 L 289.027 197.998 266.279 197.948 L 243.530 197.899 243.462 196.803 L 243.393 195.706 243.357 196.899 M342.220 197.328 C 342.220 197.696,342.259 197.846,342.307 197.662 C 342.355 197.479,342.355 197.178,342.307 196.994 C 342.259 196.811,342.220 196.961,342.220 197.328 M29.458 198.855 C 29.458 199.852,29.490 200.260,29.530 199.761 C 29.569 199.263,29.569 198.447,29.530 197.948 C 29.490 197.450,29.458 197.858,29.458 198.855 M33.066 198.229 C 33.356 198.272,33.785 198.271,34.020 198.226 C 34.255 198.181,34.017 198.145,33.492 198.146 C 32.968 198.148,32.776 198.185,33.066 198.229 M338.889 198.232 C 339.337 198.272,340.025 198.271,340.415 198.230 C 340.806 198.189,340.439 198.156,339.599 198.157 C 338.760 198.158,338.440 198.191,338.889 198.232 M342.987 198.232 C 343.485 198.271,344.301 198.271,344.800 198.232 C 345.298 198.193,344.890 198.160,343.893 198.160 C 342.896 198.160,342.488 198.193,342.987 198.232 M353.483 198.234 C 355.031 198.266,357.564 198.266,359.113 198.234 C 360.661 198.202,359.394 198.176,356.298 198.176 C 353.201 198.176,351.935 198.202,353.483 198.234 M364.361 201.287 C 365.384 201.322,367.059 201.322,368.082 201.287 C 369.105 201.253,368.268 201.225,366.221 201.225 C 364.175 201.225,363.337 201.253,364.361 201.287 M51.208 201.479 C 60.427 201.506,75.455 201.506,84.605 201.479 C 93.754 201.452,86.212 201.429,67.844 201.429 C 49.475 201.429,41.989 201.452,51.208 201.479 M170.481 201.479 C 173.611 201.508,178.678 201.508,181.741 201.479 C 184.803 201.449,182.242 201.425,176.050 201.425 C 169.857 201.425,167.351 201.449,170.481 201.479 M244.513 201.479 C 259.812 201.506,284.845 201.506,300.143 201.479 C 315.441 201.452,302.925 201.430,272.328 201.430 C 241.732 201.430,229.215 201.452,244.513 201.479 " stroke="none" fill="#969b9d" fill-rule="evenodd"></path></g></svg>